<svg xmlns="http://www.w3.org/2000/svg" width="32" height="32" viewBox="0 0 32 32">
    <g fill="none" fill-rule="evenodd">
        <circle cx="16" cy="16" r="16" fill="#EF1C74"/>
        <path fill="#FFF" d="M22.113 8H9.943C8.895 8 8 8.985 8 10.03v12.178c0 1.044.895 1.79 1.943 1.79h12.17c1.048 0 1.887-.746 1.887-1.79V10.03C24 8.985 23.161 8 22.113 8zm-.376 2.285a.55.55 0 0 1 .549.55v1.758a.55.55 0 0 1-.55.55h-1.758a.55.55 0 0 1-.55-.55v-1.758a.55.55 0 0 1 .55-.55h1.759zm-5.69 2.79a3.067 3.067 0 0 1 3.07 3.062 3.067 3.067 0 0 1-3.07 3.063 3.067 3.067 0 0 1-3.07-3.063 3.067 3.067 0 0 1 3.07-3.062zm6.239 8.724c0 .246-.261.485-.508.485H10.316c-.247 0-.602-.24-.602-.485v-6.943h1.649c-.112.572-.173.838-.173 1.281 0 2.672 2.179 4.845 4.857 4.845 2.678 0 4.857-2.174 4.857-4.845 0-.443-.061-.71-.173-1.28h1.555v6.942z"/>
    </g>
</svg>
