<svg xmlns="http://www.w3.org/2000/svg" width="32" height="32" viewBox="0 0 32 32">
    <g fill="none" fill-rule="evenodd">
        <circle cx="16" cy="16" r="16" fill="#EF1C74"/>
        <path fill="#FFF" d="M23.748 23.747h-3.263v-5.106c0-1.217-.021-2.784-1.696-2.784-1.698 0-1.957 1.327-1.957 2.697v5.193h-3.26v-10.5h3.129v1.436h.045c.435-.825 1.5-1.696 3.087-1.696 3.304 0 3.915 2.174 3.915 5.002v5.758zM9.894 11.813A1.892 1.892 0 1 1 9.89 8.03a1.892 1.892 0 0 1 .004 3.783zM8.26 23.747h3.266v-10.5H8.26v10.5z"/>
    </g>
</svg>
