<svg xmlns="http://www.w3.org/2000/svg" width="32" height="32" viewBox="0 0 32 32">
    <g fill="none" fill-rule="evenodd">
        <circle cx="16" cy="16" r="16" fill="#EF1C74"/>
        <path fill="#FFF" d="M25 10.428a7.383 7.383 0 0 1-2.12.58 3.703 3.703 0 0 0 1.623-2.038 7.45 7.45 0 0 1-2.347.895A3.685 3.685 0 0 0 19.461 8.7a3.69 3.69 0 0 0-3.597 4.526 10.489 10.489 0 0 1-7.61-3.852 3.684 3.684 0 0 0 1.143 4.921 3.697 3.697 0 0 1-1.673-.462v.046a3.692 3.692 0 0 0 2.962 3.615c-.31.083-.636.13-.973.13a3.55 3.55 0 0 1-.695-.07 3.694 3.694 0 0 0 3.448 2.561 7.416 7.416 0 0 1-4.585 1.576 7.86 7.86 0 0 1-.881-.05 10.449 10.449 0 0 0 5.66 1.658c6.793 0 10.505-5.617 10.505-10.49l-.012-.477A7.368 7.368 0 0 0 25 10.428z"/>
    </g>
</svg>
