<svg xmlns="http://www.w3.org/2000/svg" width="24" height="24" viewBox="0 0 24 24">
    <g fill="#FFF" fill-rule="nonzero">
        <path d="M12.937 18.548h-1.864v3.114c0 .717-.569 1.299-1.272 1.299-.7 0-1.268-.582-1.268-1.299v-3.114H6.96a.882.882 0 0 1-.871-.892V8.439c2.644-.01 8.812-.01 11.829 0v9.217a.88.88 0 0 1-.87.892h-1.57v3.114c0 .717-.568 1.299-1.27 1.299-.702 0-1.27-.582-1.27-1.299v-3.114zM9.826 3.713c.05.1.011.225-.088.277a.2.2 0 0 1-.27-.09L8.193 1.36a.208.208 0 0 1 .088-.277.198.198 0 0 1 .27.09l1.275 2.541zm4.643.107a.197.197 0 0 1-.274.074.206.206 0 0 1-.073-.28l1.397-2.472a.197.197 0 0 1 .273-.075c.097.056.13.182.075.28L14.469 3.82zm6.529 11.337c0 .717-.568 1.299-1.27 1.299-.703 0-1.272-.582-1.272-1.3V9.473c0-.718.569-1.298 1.272-1.298.701 0 1.27.58 1.27 1.298v5.685zm-15.456 0c0 .717-.57 1.299-1.27 1.299-.702 0-1.27-.582-1.27-1.3V9.473c0-.718.568-1.298 1.27-1.298.7 0 1.27.58 1.27 1.298v5.685z"/>
        <path d="M12.004 2.365c-3.09 0-5.634 2.405-5.974 5.496h11.947c-.34-3.091-2.882-5.496-5.973-5.496zM9.308 5.697a.502.502 0 0 1-.498-.508c0-.28.223-.506.498-.506.273 0 .496.226.496.506 0 .281-.223.508-.496.508zm5.401 0a.502.502 0 0 1-.497-.508c0-.28.223-.506.497-.506a.5.5 0 0 1 .497.506.5.5 0 0 1-.497.508z"/>
    </g>
</svg>
