<svg xmlns="http://www.w3.org/2000/svg" width="24" height="24" viewBox="0 0 24 24">
    <path fill="#FFF" fill-rule="nonzero" d="M17.699 12.69c.028 3.328 2.77 4.435 2.801 4.45-.025.076-.44 1.578-1.446 3.129-.87 1.34-1.772 2.674-3.194 2.701-1.4.029-1.848-.873-3.447-.873s-2.098.847-3.42.902c-1.373.055-2.419-1.448-3.296-2.783-1.794-2.732-3.164-7.72-1.323-11.086.912-1.672 2.546-2.731 4.32-2.759 1.347-.025 2.62.958 3.444.958.824 0 2.372-1.183 3.997-1.009.68.03 2.591.29 3.818 2.18-.098.067-2.28 1.404-2.254 4.19zM15.07 4.513c-.73.929-1.925 1.653-3.097 1.557-.158-1.265.433-2.579 1.108-3.404.754-.93 2.026-1.621 3.076-1.666.134 1.288-.36 2.582-1.087 3.513z"/>
</svg>
